<?xml version="1.0" encoding="utf-8"?>
<!-- Generator: Adobe Illustrator 16.0.0, SVG Export Plug-In . SVG Version: 6.00 Build 0)  -->
<!DOCTYPE svg PUBLIC "-//W3C//DTD SVG 1.1//EN" "http://www.w3.org/Graphics/SVG/1.1/DTD/svg11.dtd">
<svg version="1.1" id="Layer_1" style="fill: #ffffff" xmlns="http://www.w3.org/2000/svg" xmlns:xlink="http://www.w3.org/1999/xlink" x="0px" y="0px"
	 width="438.691px" height="116.847px" viewBox="0 0 438.691 116.847" enable-background="new 0 0 438.691 116.847"
	 xml:space="preserve">
<g>
	<g>
		<g>
			<g>
				<path d="M222.093,0c-22.077,0-39.975,17.896-39.975,39.975c0,22.077,17.897,39.975,39.975,39.975
					c22.079,0,39.974-17.897,39.974-39.975C262.066,17.896,244.172,0,222.093,0z M222.093,58.963c-10.487,0-18.99-8.5-18.99-18.988
					s8.502-18.989,18.99-18.989c10.488,0,18.99,8.501,18.99,18.989S232.581,58.963,222.093,58.963z"/>
				<path d="M189.922,9.772V1.93h-7.586l-29.223,32.495l-1.257,0.087L123.241,1.93h-7.567l0.022,76.285h19.402
					V44.918l16.671,16.619l2.08,0.028l15.928-16.647v33.297h20.145v-8.039c-7.415-7.896-11.965-18.514-11.965-30.201
					S182.507,17.669,189.922,9.772z"/>
				<path d="M358.529,65.129l-14.431-23.333C362.655,31.304,358.146,1.93,358.146,1.93H338.81
					c2.688,34.663-19.8,29.113-19.8,29.113V1.966h-20.117v37.402L260.681,1.966l-6.937-0.036v7.298
					c7.723,7.948,12.485,18.789,12.485,30.747c0,11.957-4.763,22.798-12.485,30.747V78.1h20.232V40.986L311.958,78.1h6.822V49.194
					h7.803L343.464,78.1h15.065"/>
			</g>
			<g>
				<path d="M133.062,111.794c0,1.63-1.077,3.001-3.226,4.113c-1.841,0.937-3.663,1.405-5.465,1.405
					c-1.944,0-3.783-0.469-5.518-1.405c-2.082-1.112-3.122-2.552-3.122-4.32V84.003h17.33V111.794z M129.575,111.533V86.761h-10.357
					v24.564c0,0.974,0.639,1.789,1.917,2.447c1.07,0.521,2.157,0.78,3.26,0.78c1.003,0,2.055-0.26,3.161-0.78
					C128.902,113.147,129.575,112.401,129.575,111.533z"/>
				<path d="M157.054,100.709c0,1.216-0.901,2.448-2.705,3.696c-1.665,1.18-3.142,1.77-4.426,1.77h-6.711v11.138
					h-3.487v-33.31h17.33V100.709z M153.566,100.45V86.761h-10.355v16.655h6.142c0.692,0,1.569-0.331,2.627-0.989
					C153.038,101.768,153.566,101.108,153.566,100.45z"/>
				<path d="M180.16,111.794c0,1.63-1.075,3.001-3.226,4.113c-1.84,0.937-3.661,1.405-5.464,1.405
					c-1.944,0-3.783-0.469-5.519-1.405c-2.082-1.112-3.122-2.552-3.122-4.32V84.003h17.33v16.654h-3.486V86.761h-10.358v16.655
					h13.844v2.759h-13.844v5.358c0,0.973,0.725,1.752,2.175,2.344c1.106,0.45,2.107,0.676,3.003,0.676
					c0.966,0,2.021-0.278,3.16-0.833c1.347-0.625,2.02-1.37,2.02-2.236v-2.499h3.486V111.794z"/>
				<path d="M203.632,117.312h-9.212l-2.706-30.552h-1.926v30.552h-3.486v-33.31h8.639l2.55,30.55h2.655v-30.55
					h3.486V117.312z"/>
				<path d="M239.854,111.794c0,1.63-1.077,3.001-3.229,4.113c-1.838,0.937-3.659,1.405-5.465,1.405
					c-1.804,0-3.625-0.487-5.464-1.46c-2.115-1.109-3.175-2.462-3.175-4.059v-2.81h3.488v2.549c0,0.973,0.724,1.752,2.176,2.344
					c1.103,0.45,2.104,0.676,3.002,0.676c0.964,0,2.019-0.278,3.158-0.833c1.348-0.625,2.019-1.37,2.019-2.236v-5.258h-13.843
					V84.003h17.332v16.654h-3.489V86.761h-10.354v16.604h13.844V111.794z"/>
				<path d="M263.636,111.794c0,1.63-1.075,3.001-3.227,4.113c-1.84,0.937-3.661,1.405-5.464,1.405
					c-1.944,0-3.783-0.469-5.518-1.405c-2.08-1.112-3.122-2.552-3.122-4.32V84.003h17.33V111.794z M260.148,111.533V86.761h-10.354
					v24.564c0,0.974,0.637,1.789,1.916,2.447c1.069,0.521,2.156,0.78,3.261,0.78c1.001,0,2.054-0.26,3.157-0.78
					C259.477,113.147,260.148,112.401,260.148,111.533z"/>
				<path d="M287.628,111.794c0,1.63-1.076,3.001-3.226,4.113c-1.84,0.937-3.661,1.405-5.465,1.405
					c-1.945,0-3.783-0.469-5.517-1.405c-2.083-1.112-3.124-2.552-3.124-4.32V84.003h3.487v27.53c0,0.938,0.656,1.702,1.968,2.291
					c1.071,0.487,2.141,0.729,3.212,0.729c1.034,0,2.105-0.26,3.21-0.78c1.313-0.625,1.969-1.388,1.969-2.289v-27.48h3.485V111.794z
					"/>
				<path d="M311.619,97.015c0,1.734-0.832,3.522-2.497,5.361c-1.597,1.7-3.279,2.81-5.049,3.33l7.546,10.146
					l-3.435,1.46l-7.858-11.138h-2.55v11.138h-3.486v-33.31h17.329V97.015z M308.133,96.91V86.761h-10.356v16.655h3.592
					c1.456,0,2.948-0.721,4.475-2.16C307.369,99.819,308.133,98.367,308.133,96.91z"/>
				<path d="M335.353,111.794c0,1.63-1.077,3.001-3.227,4.113c-1.839,0.937-3.659,1.405-5.465,1.405
					c-1.944,0-3.782-0.469-5.517-1.405c-2.083-1.112-3.123-2.552-3.123-4.32V84.003h17.331v19.413h-3.487V86.761h-10.357v24.772
					c0,0.938,0.655,1.702,1.97,2.291c1.069,0.487,2.14,0.729,3.21,0.729c0.965,0,2.018-0.278,3.158-0.833
					c1.346-0.625,2.02-1.37,2.02-2.236v-2.499h3.487V111.794z"/>
				<path d="M358.772,111.794c0,1.63-1.078,3.001-3.229,4.113c-1.839,0.937-3.66,1.405-5.464,1.405
					c-1.943,0-3.781-0.469-5.517-1.405c-2.083-1.112-3.122-2.552-3.122-4.32V84.003h17.331v16.654h-3.488V86.761h-10.356v16.655
					h13.845v2.759h-13.845v5.358c0,0.973,0.723,1.752,2.174,2.344c1.104,0.45,2.107,0.676,3.003,0.676
					c0.967,0,2.02-0.278,3.16-0.833c1.347-0.625,2.02-1.37,2.02-2.236v-2.499h3.488V111.794z"/>
			</g>
		</g>
		<polygon points="79.919,116.847 91.833,1.98 111.527,1.98 99.192,116.847 		"/>
	</g>
	<g>
		<g>
			<polygon points="51.94,2.28 77.062,2.28 25.437,59.214 77.062,117.061 51.483,117.061 0,59.332 			"/>
		</g>
		<g>
			<polygon points="386.751,1.604 361.63,1.604 413.254,59.214 361.63,117.061 387.208,117.061 438.691,59.332
				"/>
		</g>
	</g>
</g>
</svg>
